<?xml version="1.0" standalone="no"?>
<!DOCTYPE svg PUBLIC "-//W3C//DTD SVG 20010904//EN"
 "http://www.w3.org/TR/2001/REC-SVG-20010904/DTD/svg10.dtd">
<svg version="1.0" xmlns="http://www.w3.org/2000/svg"
 width="512.000000pt" height="512.000000pt" viewBox="0 0 512.000000 512.000000"
 preserveAspectRatio="xMidYMid meet">
<metadata>
Created by potrace 1.14, written by Peter Selinger 2001-2017
</metadata>
<g transform="translate(0.000000,512.000000) scale(0.100000,-0.100000)"
fill="#000000" stroke="none">
<path d="M4560 3745 l0 -725 -250 0 -250 0 0 245 0 245 -250 0 -250 0 0 245 0
245 -1000 0 -1000 0 0 -245 0 -245 -250 0 -250 0 0 -245 0 -245 -244 -2 -244
-3 257 -250 c141 -137 361 -352 489 -477 128 -125 235 -228 238 -228 2 0 4
216 4 480 l0 480 250 0 250 0 0 -485 0 -485 -245 0 c-135 0 -245 -3 -244 -7 1
-5 113 -115 249 -245 l248 -238 746 0 746 0 0 -240 0 -240 -972 -1 c-1082 -2
-1008 -1 -1008 -11 0 -4 244 -246 543 -538 l542 -529 1228 -1 1227 0 0 1969 0
1969 -274 266 c-150 146 -276 266 -280 266 -3 0 -6 -326 -6 -725z m-1000
-1210 l0 -485 -250 0 -250 0 0 485 0 485 250 0 250 0 0 -485z"/>
</g>
</svg>
